# xmcd
#
# Track frame offsets:
#	150
#	20047
#	35545
#	48840
#	77886
#	97655
#	117476
#	135422
#	153254
#
# Disc length: 2263 seconds
#
# Revision: 1
# Processed by: cddbd v1.5.1PL0 Copyright (c) Steve Scherf et al.
# Submitted via: EasyCDDAExtractor 6.2.0.3
#
DISCID=6608d509
DTITLE=Tommy Castro - Exception To The Rule
DYEAR=1996
DGENRE=Blues
TTITLE0=Can't Quit The Blues
TTITLE1=Exception To The Rule
TTITLE2=Hard Luck Case
TTITLE3=How Long Must I Cry
TTITLE4=Leave This Town
TTITLE5=Me And My Guitar
TTITLE6=Nasty Habits
TTITLE7=Sho' Enough
TTITLE8=This Soul Is Mine
EXTD=
EXTT0=
EXTT1=
EXTT2=
EXTT3=
EXTT4=
EXTT5=
EXTT6=
EXTT7=
EXTT8=
PLAYORDER=
